<svg width="1280" height="720" xmlns="http://www.w3.org/2000/svg" xmlns:xlink="http://www.w3.org/1999/xlink" overflow="hidden"><defs><filter id="fx0" x="-10%" y="-10%" width="120%" height="120%" filterUnits="userSpaceOnUse" primitiveUnits="userSpaceOnUse"><feComponentTransfer color-interpolation-filters="sRGB"><feFuncR type="discrete" tableValues="0 0"/><feFuncG type="discrete" tableValues="0 0"/><feFuncB type="discrete" tableValues="0 0"/><feFuncA type="linear" slope="0.431373" intercept="0"/></feComponentTransfer><feGaussianBlur stdDeviation="4.01192 4.01192"/></filter><filter id="fx1" x="-10%" y="-10%" width="120%" height="120%" filterUnits="userSpaceOnUse" primitiveUnits="userSpaceOnUse"><feComponentTransfer color-interpolation-filters="sRGB"><feFuncR type="discrete" tableValues="0 0"/><feFuncG type="discrete" tableValues="0 0"/><feFuncB type="discrete" tableValues="0 0"/><feFuncA type="linear" slope="0.431373" intercept="0"/></feComponentTransfer><feGaussianBlur stdDeviation="4.01192 4.01192"/></filter><filter id="fx2" x="-10%" y="-10%" width="120%" height="120%" filterUnits="userSpaceOnUse" primitiveUnits="userSpaceOnUse"><feComponentTransfer color-interpolation-filters="sRGB"><feFuncR type="discrete" tableValues="0 0"/><feFuncG type="discrete" tableValues="0 0"/><feFuncB type="discrete" tableValues="0 0"/><feFuncA type="linear" slope="0.431373" intercept="0"/></feComponentTransfer><feGaussianBlur stdDeviation="0.960298 0.960298"/></filter><linearGradient x1="406.202" y1="332.286" x2="784.535" y2="332.286" gradientUnits="userSpaceOnUse" spreadMethod="reflect" id="fill3"><stop offset="0" stop-color="#5BC5D7"/><stop offset="0.38" stop-color="#0DE3C4"/><stop offset="0.82" stop-color="#FFFFA7"/><stop offset="1" stop-color="#FFFFA7"/></linearGradient><linearGradient x1="599.17" y1="332.286" x2="905.503" y2="332.286" gradientUnits="userSpaceOnUse" spreadMethod="reflect" id="fill4"><stop offset="0" stop-color="#5BC5D7"/><stop offset="0.38" stop-color="#0DE3C4"/><stop offset="0.82" stop-color="#FFFFA7"/><stop offset="1" stop-color="#FFFFA7"/></linearGradient><clipPath id="clip5"><rect x="1" y="1" width="441" height="47"/></clipPath><linearGradient x1="470.149" y1="592.127" x2="907.422" y2="592.127" gradientUnits="userSpaceOnUse" spreadMethod="reflect" id="fill6"><stop offset="0" stop-color="#5BC5D7"/><stop offset="0.38" stop-color="#0DE3C4"/><stop offset="0.82" stop-color="#FFFFA7"/><stop offset="1" stop-color="#FFFFA7"/></linearGradient></defs><g><rect x="0" y="0" width="1280" height="720"/><g filter="url(#fx0)" transform="translate(444 141)"><g><path d="M14.4185 14.3669 49.5965 14.3669 269.725 323.507 269.725 14.3669 309.167 14.3669 309.167 392.797 273.989 392.797 53.8605 83.6569 53.8605 392.797 14.4185 392.797Z" fill="#FF0000" fill-rule="evenodd"/></g></g><path d="M449.908 146.856 485.086 146.856 705.215 455.996 705.215 146.856 744.657 146.856 744.657 525.286 709.479 525.286 489.35 216.146 489.35 525.286 449.908 525.286Z" fill="url(#fill3)" fill-rule="evenodd"/><text fill="#000000" fill-opacity="0" font-family="Arial,Arial_MSFontService,sans-serif" font-size="378.43" x="449.908" y="477.983">N</text><g filter="url(#fx1)" transform="translate(637 141)"><g><path d="M54.8943 48.4789 54.8943 188.125 112.991 188.125C144.261 188.125 168.423 182.528 185.479 171.335 202.535 160.142 211.063 142.287 211.063 117.769 211.063 96.0935 203.601 79.1264 188.677 66.8674 173.753 54.6084 150.124 48.4789 117.788 48.4789ZM14.3863 14.3669 120.986 14.3669C163.271 14.3669 195.695 23.5167 218.259 41.8164 240.822 60.116 252.104 85.0782 252.104 116.703 252.104 139.444 246.508 158.455 235.315 173.734 224.122 189.013 209.109 200.562 190.276 208.379 171.444 216.196 150.657 220.105 127.915 220.105L124.717 220.105C134.667 225.08 144.794 235.207 155.098 250.486L204.667 322.974C211.419 333.279 217.37 341.096 222.523 346.426 227.675 351.756 233.005 355.398 238.513 357.352 244.02 359.307 250.861 360.284 259.033 360.284 264.363 360.284 269.338 359.484 273.957 357.885 278.577 356.286 283.018 354.243 287.282 351.756L296.343 383.736C285.328 391.909 270.759 395.995 252.637 395.995 237.358 395.995 223.5 392.441 211.063 385.335 198.627 378.228 186.545 366.147 174.819 349.091L103.93 244.623C99.311 237.872 93.8033 232.275 87.4073 227.833 81.0113 223.392 74.4377 221.171 67.6863 221.171L54.8943 221.171 54.8943 392.797 14.3863 392.797Z" fill="#FF0000" fill-rule="evenodd"/></g></g><path d="M683.384 180.968 683.384 320.614 741.481 320.614C772.75 320.614 796.913 315.018 813.969 303.825 831.025 292.632 839.553 274.776 839.553 250.258 839.553 228.583 832.091 211.616 817.167 199.357 802.243 187.098 778.613 180.968 746.278 180.968ZM642.876 146.856 749.476 146.856C791.76 146.856 824.185 156.006 846.748 174.306 869.312 192.605 880.594 217.568 880.594 249.192 880.594 271.934 874.997 290.944 863.804 306.223 852.611 321.503 837.598 333.051 818.766 340.868 799.933 348.686 779.146 352.594 756.405 352.594L753.207 352.594C763.156 357.569 773.283 367.696 783.588 382.975L833.157 455.463C839.908 465.768 845.86 473.585 851.012 478.915 856.165 484.245 861.495 487.887 867.002 489.842 872.51 491.796 879.35 492.773 887.523 492.773 892.853 492.773 897.827 491.974 902.447 490.375 907.066 488.776 911.508 486.733 915.772 484.245L924.833 516.225C913.817 524.398 899.249 528.484 881.127 528.484 865.847 528.484 851.989 524.931 839.553 517.824 827.116 510.718 815.035 498.636 803.309 481.58L732.42 377.112C727.8 370.361 722.293 364.764 715.897 360.323 709.501 355.881 702.927 353.66 696.176 353.66L683.384 353.66 683.384 525.286 642.876 525.286Z" fill="url(#fill4)" fill-rule="evenodd"/><text fill="#000000" fill-opacity="0" font-family="Arial,Arial_MSFontService,sans-serif" font-size="381.628" x="642.876" y="480.781">R</text><g clip-path="url(#clip5)" filter="url(#fx2)" transform="translate(469 572)"><g><path d="M20.4425 24.8635C19.2518 24.8635 18.2339 24.8827 17.3888 24.9212 16.5438 24.9596 15.862 25.0268 15.3434 25.1228L15.3434 41.1404C17.5713 41.6589 19.7703 41.9182 21.9406 41.9182 25.4168 41.9182 28.0672 41.1356 29.8918 39.5703 31.7163 38.0051 32.6286 36.0701 32.6286 33.7654 32.6286 32.2481 32.2156 30.7885 31.3898 29.3865 30.564 27.9845 29.2196 26.8801 27.3566 26.0735 25.4936 25.2669 23.1889 24.8635 20.4425 24.8635ZM61.7472 12.9656 54.9484 28.7527 68.3732 28.7527ZM381.838 7.08864C380.724 7.08864 379.216 7.27109 377.315 7.636L377.315 23.884C377.679 23.884 377.996 23.8888 378.265 23.8984 378.534 23.9081 378.755 23.9129 378.928 23.9129 382.654 23.9129 385.463 23.1062 387.354 21.4929 389.246 19.8797 390.192 17.8246 390.192 15.3279 390.192 12.8888 389.429 10.9058 387.902 9.37892 386.375 7.85206 384.353 7.08864 381.838 7.08864ZM20.529 6.82936C18.6084 6.82936 16.8799 7.04062 15.3434 7.46315L15.3434 22.4724C16.054 22.6069 16.8655 22.7077 17.7777 22.7749 18.69 22.8421 19.6935 22.8757 20.7882 22.8757 23.5923 22.8757 25.7001 22.5733 27.1117 21.9683 28.5233 21.3633 29.6037 20.4366 30.3527 19.1882 31.1017 17.9399 31.4762 16.5763 31.4762 15.0974 31.4762 12.8119 30.5447 10.8626 28.6818 9.24928 26.8188 7.636 24.1012 6.82936 20.529 6.82936ZM344.216 6.10914C340.721 6.10914 337.917 7.40553 335.804 9.9983 333.173 13.2249 331.858 17.9495 331.858 24.1721 331.858 30.5484 333.221 35.4555 335.948 38.8933 338.042 41.5053 340.807 42.8113 344.245 42.8113 347.914 42.8113 350.943 41.3805 353.334 38.5188 355.725 35.6572 356.921 31.1438 356.921 24.9788 356.921 18.2952 355.605 13.3113 352.974 10.0271 350.862 7.41514 347.942 6.10914 344.216 6.10914ZM405.396 4.89918 435.501 4.89918 435.933 13.4553 434.81 13.4553C434.406 11.4003 433.96 9.9887 433.47 9.22047 432.98 8.45225 432.255 7.86647 431.295 7.46315 430.527 7.17506 429.173 7.03102 427.233 7.03102L416.516 7.03102 416.516 22.4724 425.101 22.4724C427.329 22.4724 428.818 22.1363 429.567 21.4641 430.565 20.5807 431.122 19.025 431.237 16.7971L432.303 16.7971 432.303 30.3948 431.237 30.3948C430.969 28.4934 430.7 27.2739 430.431 26.7361 430.085 26.0639 429.519 25.5357 428.731 25.1516 427.944 24.7675 426.734 24.5755 425.101 24.5755L416.516 24.5755 416.516 37.4529C416.516 39.1814 416.593 40.2329 416.747 40.6074 416.9 40.9819 417.169 41.2796 417.553 41.5005 417.938 41.7214 418.667 41.8318 419.743 41.8318L426.369 41.8318C428.577 41.8318 430.181 41.6782 431.18 41.3709 432.178 41.0636 433.139 40.4586 434.061 39.5559 435.251 38.3652 436.471 36.5694 437.719 34.1687L438.872 34.1687 435.501 43.9636 405.396 43.9636 405.396 42.8977 406.779 42.8977C407.701 42.8977 408.575 42.6768 409.401 42.2351 410.015 41.9278 410.433 41.4669 410.654 40.8523 410.875 40.2377 410.985 38.9797 410.985 37.0784L410.985 11.698C410.985 9.22047 410.735 7.69362 410.236 7.11744 409.545 6.34922 408.392 5.9651 406.779 5.9651L405.396 5.9651ZM366.194 4.89918 380.426 4.89918C384.574 4.89918 387.633 5.20167 389.601 5.80665 391.57 6.41163 393.241 7.52556 394.614 9.14845 395.987 10.7713 396.674 12.7063 396.674 14.9534 396.674 17.3541 395.891 19.4379 394.326 21.2048 392.761 22.9718 390.336 24.2201 387.052 24.95L395.118 36.1565C396.962 38.7301 398.547 40.4394 399.872 41.2844 401.197 42.1295 402.925 42.6672 405.057 42.8977L405.057 43.9636 394.629 43.9636 381.405 25.699C380.426 25.7374 379.629 25.7566 379.014 25.7566 378.765 25.7566 378.496 25.7518 378.208 25.7422 377.92 25.7326 377.622 25.7182 377.315 25.699L377.315 37.0496C377.315 39.5079 377.583 41.0348 378.121 41.6301 378.851 42.4752 379.946 42.8977 381.405 42.8977L382.932 42.8977 382.932 43.9636 366.194 43.9636 366.194 42.8977 367.664 42.8977C369.315 42.8977 370.497 42.36 371.207 41.2844 371.61 40.6891 371.812 39.2774 371.812 37.0496L371.812 11.8132C371.812 9.35491 371.543 7.82805 371.006 7.23268 370.257 6.38762 369.143 5.9651 367.664 5.9651L366.194 5.9651ZM290.433 4.89918 322.324 4.89918 322.757 14.0603 321.662 14.0603C321.45 12.447 321.162 11.2947 320.798 10.6033 320.202 9.48936 319.41 8.66831 318.421 8.14015 317.432 7.61199 316.13 7.34791 314.517 7.34791L309.015 7.34791 309.015 37.1936C309.015 39.5943 309.274 41.0924 309.793 41.6878 310.522 42.4944 311.646 42.8977 313.163 42.8977L314.517 42.8977 314.517 43.9636 297.952 43.9636 297.952 42.8977 299.335 42.8977C300.987 42.8977 302.158 42.3984 302.85 41.3997 303.272 40.7851 303.484 39.3831 303.484 37.1936L303.484 7.34791 298.788 7.34791C296.963 7.34791 295.667 7.48235 294.899 7.75123 293.9 8.11614 293.045 8.81715 292.335 9.85426 291.624 10.8914 291.201 12.2934 291.067 14.0603L289.972 14.0603ZM206.396 4.89918 236.501 4.89918 236.933 13.4553 235.81 13.4553C235.406 11.4003 234.96 9.9887 234.47 9.22047 233.98 8.45225 233.255 7.86647 232.295 7.46315 231.527 7.17506 230.173 7.03102 228.233 7.03102L217.516 7.03102 217.516 22.4724 226.101 22.4724C228.329 22.4724 229.818 22.1363 230.567 21.4641 231.565 20.5807 232.122 19.025 232.237 16.7971L233.303 16.7971 233.303 30.3948 232.237 30.3948C231.969 28.4934 231.7 27.2739 231.431 26.7361 231.085 26.0639 230.519 25.5357 229.731 25.1516 228.944 24.7675 227.734 24.5755 226.101 24.5755L217.516 24.5755 217.516 37.4529C217.516 39.1814 217.593 40.2329 217.747 40.6074 217.9 40.9819 218.169 41.2796 218.553 41.5005 218.937 41.7214 219.667 41.8318 220.743 41.8318L227.369 41.8318C229.577 41.8318 231.181 41.6782 232.18 41.3709 233.179 41.0636 234.139 40.4586 235.061 39.5559 236.251 38.3652 237.471 36.5694 238.719 34.1687L239.872 34.1687 236.501 43.9636 206.396 43.9636 206.396 42.8977 207.779 42.8977C208.701 42.8977 209.575 42.6768 210.401 42.2351 211.015 41.9278 211.433 41.4669 211.654 40.8523 211.875 40.2377 211.985 38.9797 211.985 37.0784L211.985 11.698C211.985 9.22047 211.735 7.69362 211.236 7.11744 210.545 6.34922 209.392 5.9651 207.779 5.9651L206.396 5.9651ZM170.367 4.89918 188.056 4.89918 188.056 5.9651C185.982 5.9459 184.527 6.13795 183.691 6.54127 182.856 6.94459 182.284 7.45354 181.977 8.06813 181.67 8.68271 181.516 10.152 181.516 12.4758L181.516 37.0208C181.516 38.6148 181.67 39.7096 181.977 40.3049 182.208 40.7083 182.563 41.006 183.043 41.198 183.523 41.3901 185.021 41.4861 187.537 41.4861L190.389 41.4861C193.385 41.4861 195.488 41.2652 196.698 40.8235 197.908 40.3818 199.013 39.5991 200.011 38.4756 201.01 37.3521 202.009 35.5803 203.007 33.1604L203.958 33.3621 200.616 43.9636 170.367 43.9636 170.367 42.8977 171.837 42.8977C173.488 42.8977 174.669 42.36 175.38 41.2844 175.783 40.6699 175.985 39.2486 175.985 37.0208L175.985 11.8132C175.985 9.37412 175.716 7.84727 175.178 7.23268 174.429 6.38762 173.315 5.9651 171.837 5.9651L170.367 5.9651ZM84.4084 4.89918 95.0099 4.89918 118.892 34.1975 118.892 11.6692C118.892 9.26848 118.623 7.77044 118.086 7.17506 117.375 6.36842 116.251 5.9651 114.715 5.9651L113.361 5.9651 113.361 4.89918 126.959 4.89918 126.959 5.9651 125.576 5.9651C123.924 5.9651 122.753 6.46445 122.061 7.46315 121.639 8.07773 121.427 9.47975 121.427 11.6692L121.427 44.5974 120.39 44.5974 94.6354 13.1384 94.6354 37.1936C94.6354 39.5943 94.8947 41.0924 95.4132 41.6878 96.1431 42.4944 97.2666 42.8977 98.7838 42.8977L100.167 42.8977 100.167 43.9636 86.569 43.9636 86.569 42.8977 87.923 42.8977C89.5939 42.8977 90.775 42.3984 91.4665 41.3997 91.889 40.7851 92.1003 39.3831 92.1003 37.1936L92.1003 10.0271C90.9671 8.70192 90.1077 7.82805 89.5219 7.40553 88.9361 6.98301 88.0767 6.58928 86.9435 6.22438 86.3865 6.05153 85.5415 5.9651 84.4084 5.9651ZM4.16568 4.89918 21.0475 4.89918C24.1973 4.89918 26.7228 5.12965 28.6242 5.59059 31.505 6.282 33.7041 7.50636 35.2213 9.26369 36.7386 11.021 37.4972 13.0424 37.4972 15.3279 37.4972 17.2869 36.9019 19.0394 35.7111 20.5855 34.5203 22.1315 32.763 23.2791 30.4391 24.0281 33.1471 24.6043 35.1733 25.5261 36.5177 26.7937 38.3807 28.5606 39.3122 30.7213 39.3122 33.2756 39.3122 35.2154 38.6976 37.0736 37.4684 38.8501 36.2392 40.6266 34.5539 41.923 32.4125 42.7393 30.2711 43.5555 27.0013 43.9636 22.6032 43.9636L4.16568 43.9636 4.16568 42.8977 5.63492 42.8977C7.2674 42.8977 8.43895 42.3792 9.14957 41.3421 9.5913 40.6699 9.81216 39.239 9.81216 37.0496L9.81216 11.8132C9.81216 9.39332 9.53368 7.86647 8.97672 7.23268 8.22769 6.38762 7.11376 5.9651 5.63492 5.9651L4.16568 5.9651ZM344.764 4.00612C349.834 4.00612 354.227 5.93149 357.944 9.78224 361.66 13.633 363.518 18.4392 363.518 24.2009 363.518 30.1355 361.646 35.0618 357.901 38.9797 354.155 42.8977 349.623 44.8567 344.303 44.8567 338.925 44.8567 334.407 42.9457 330.748 39.1238 327.09 35.3019 325.26 30.3564 325.26 24.2874 325.26 18.0839 327.373 13.0232 331.598 9.10524 335.267 5.70582 339.655 4.00612 344.764 4.00612ZM271.311 4.00612C273.385 4.00612 275.584 4.51506 277.908 5.53297 278.983 6.01311 279.742 6.25319 280.184 6.25319 280.683 6.25319 281.091 6.10435 281.408 5.80665 281.725 5.50896 281.979 4.90879 282.172 4.00612L283.237 4.00612 283.237 17.5173 282.172 17.5173C281.826 14.9246 281.206 12.86 280.313 11.3235 279.42 9.78704 278.148 8.56748 276.496 7.66481 274.845 6.76213 273.135 6.3108 271.368 6.3108 269.371 6.3108 267.719 6.92058 266.413 8.14015 265.107 9.35971 264.454 10.7473 264.454 12.303 264.454 13.4937 264.867 14.5789 265.693 15.5584 266.884 16.9988 269.717 18.9194 274.192 21.3201 277.841 23.2791 280.333 24.7819 281.667 25.8286 283.002 26.8753 284.03 28.1093 284.75 29.5305 285.47 30.9518 285.83 32.4402 285.83 33.9959 285.83 36.9535 284.683 39.5031 282.388 41.6445 280.092 43.786 277.14 44.8567 273.529 44.8567 272.396 44.8567 271.33 44.7703 270.331 44.5974 269.736 44.5014 268.502 44.1509 266.629 43.5459 264.757 42.9409 263.571 42.6384 263.071 42.6384 262.591 42.6384 262.212 42.7825 261.934 43.0706 261.655 43.3587 261.449 43.954 261.314 44.8567L260.248 44.8567 260.248 31.4607 261.314 31.4607C261.813 34.2647 262.486 36.363 263.331 37.7554 264.176 39.1478 265.467 40.3049 267.205 41.2268 268.944 42.1487 270.85 42.6096 272.924 42.6096 275.325 42.6096 277.221 41.9758 278.614 40.7083 280.006 39.4407 280.702 37.9426 280.702 36.2141 280.702 35.2538 280.438 34.2839 279.91 33.3045 279.382 32.325 278.561 31.4127 277.447 30.5676 276.698 29.9915 274.652 28.7671 271.311 26.8945 267.969 25.022 265.592 23.5287 264.181 22.4148 262.769 21.3009 261.698 20.0717 260.968 18.7273 260.239 17.3829 259.874 15.9041 259.874 14.2908 259.874 11.4867 260.949 9.07163 263.1 7.04542 265.251 5.01921 267.988 4.00612 271.311 4.00612ZM149.945 4.00612C151.366 4.00612 152.658 4.12135 153.82 4.35182 154.982 4.58229 156.629 5.09124 158.76 5.87868 159.836 6.282 160.556 6.48366 160.921 6.48366 161.286 6.48366 161.598 6.3156 161.857 5.97951 162.117 5.64341 162.275 4.98561 162.333 4.00612L163.399 4.00612 164.407 16.3362 163.399 16.3362C162.381 13.2633 161.065 10.949 159.452 9.39332 157.128 7.14625 154.141 6.02272 150.492 6.02272 145.518 6.02272 141.735 7.99131 139.142 11.9285 136.972 15.2511 135.886 19.2075 135.886 23.7976 135.886 27.5235 136.607 30.9229 138.047 33.9959 139.487 37.0688 141.374 39.3206 143.708 40.7515 146.041 42.1823 148.437 42.8977 150.896 42.8977 152.336 42.8977 153.728 42.7153 155.073 42.3504 156.417 41.9854 157.714 41.4477 158.962 40.7371L158.962 29.4441C158.962 27.4851 158.813 26.2031 158.516 25.5982 158.218 24.9932 157.757 24.5322 157.133 24.2153 156.509 23.8984 155.409 23.74 153.834 23.74L153.834 22.6453 168.959 22.6453 168.959 23.74 168.238 23.74C166.74 23.74 165.713 24.2393 165.156 25.238 164.772 25.9487 164.58 27.3507 164.58 29.4441L164.58 41.3997C162.371 42.5904 160.191 43.4643 158.04 44.0213 155.889 44.5782 153.498 44.8567 150.867 44.8567 143.319 44.8567 137.586 42.4368 133.668 37.5969 130.73 33.9671 129.26 29.7802 129.26 25.0364 129.26 21.5986 130.086 18.3048 131.738 15.155 133.697 11.4099 136.386 8.52907 139.804 6.51246 142.666 4.84157 146.046 4.00612 149.945 4.00612ZM62.8131 4.00612 63.8214 4.00612 77.4191 36.5022C78.5138 39.1142 79.5077 40.8091 80.4008 41.5869 81.2939 42.3648 82.5374 42.8017 84.1315 42.8977L84.1315 43.9636 68.7189 43.9636 68.7189 42.8977C70.2746 42.8209 71.3261 42.5616 71.8734 42.1199 72.4208 41.6782 72.6945 41.1404 72.6945 40.5066 72.6945 39.6616 72.3104 38.3268 71.5421 36.5022L69.1798 30.8845 54.0553 30.8845 51.4049 37.0496C50.7519 38.5668 50.4254 39.7 50.4254 40.449 50.4254 41.0444 50.7087 41.5677 51.2753 42.0191 51.8419 42.4704 53.0662 42.7633 54.9484 42.8977L54.9484 43.9636 42.6471 43.9636 42.6471 42.8977C44.2796 42.6096 45.3359 42.2351 45.8161 41.7742 46.7956 40.8523 47.8807 38.9797 49.0714 36.1565Z" fill="#FF0000" fill-rule="evenodd"/></g></g><path d="M487.405 594.826C486.215 594.826 485.197 594.846 484.352 594.884 483.507 594.922 482.825 594.99 482.306 595.086L482.306 611.103C484.534 611.622 486.733 611.881 488.903 611.881 492.38 611.881 495.03 611.099 496.855 609.533 498.679 607.968 499.591 606.033 499.591 603.728 499.591 602.211 499.179 600.751 498.353 599.349 497.527 597.947 496.182 596.843 494.319 596.036 492.457 595.23 490.152 594.826 487.405 594.826ZM528.71 582.928 521.911 598.716 535.336 598.716ZM848.8 577.052C847.687 577.052 846.179 577.234 844.277 577.599L844.277 593.847C844.642 593.847 844.959 593.852 845.228 593.861 845.497 593.871 845.718 593.876 845.891 593.876 849.617 593.876 852.426 593.069 854.317 591.456 856.209 589.843 857.155 587.788 857.155 585.291 857.155 582.852 856.391 580.869 854.865 579.342 853.338 577.815 851.316 577.052 848.8 577.052ZM487.492 576.792C485.571 576.792 483.843 577.004 482.306 577.426L482.306 592.435C483.017 592.57 483.828 592.671 484.741 592.738 485.653 592.805 486.656 592.839 487.751 592.839 490.555 592.839 492.663 592.536 494.075 591.931 495.486 591.326 496.567 590.4 497.316 589.151 498.065 587.903 498.439 586.539 498.439 585.06 498.439 582.775 497.508 580.825 495.645 579.212 493.782 577.599 491.064 576.792 487.492 576.792ZM811.179 576.072C807.684 576.072 804.88 577.368 802.767 579.961 800.136 583.188 798.82 587.912 798.82 594.135 798.82 600.511 800.184 605.418 802.911 608.856 805.005 611.468 807.77 612.774 811.208 612.774 814.876 612.774 817.906 611.343 820.297 608.482 822.688 605.62 823.884 601.107 823.884 594.942 823.884 588.258 822.568 583.274 819.937 579.99 817.824 577.378 814.905 576.072 811.179 576.072ZM872.359 574.862 902.464 574.862 902.896 583.418 901.773 583.418C901.369 581.363 900.923 579.952 900.433 579.183 899.943 578.415 899.218 577.829 898.258 577.426 897.49 577.138 896.136 576.994 894.196 576.994L883.479 576.994 883.479 592.435 892.064 592.435C894.292 592.435 895.78 592.099 896.529 591.427 897.528 590.544 898.085 588.988 898.2 586.76L899.266 586.76 899.266 600.358 898.2 600.358C897.931 598.456 897.663 597.237 897.394 596.699 897.048 596.027 896.481 595.499 895.694 595.115 894.906 594.73 893.697 594.538 892.064 594.538L883.479 594.538 883.479 607.416C883.479 609.144 883.556 610.196 883.71 610.57 883.863 610.945 884.132 611.243 884.516 611.463 884.9 611.684 885.63 611.795 886.706 611.795L893.332 611.795C895.54 611.795 897.144 611.641 898.143 611.334 899.141 611.026 900.102 610.422 901.024 609.519 902.214 608.328 903.434 606.532 904.682 604.132L905.835 604.132 902.464 613.927 872.359 613.927 872.359 612.861 873.742 612.861C874.664 612.861 875.538 612.64 876.363 612.198 876.978 611.891 877.396 611.43 877.617 610.815 877.837 610.201 877.948 608.943 877.948 607.041L877.948 581.661C877.948 579.183 877.698 577.656 877.199 577.08 876.507 576.312 875.355 575.928 873.742 575.928L872.359 575.928ZM833.157 574.862 847.389 574.862C851.537 574.862 854.596 575.165 856.564 575.77 858.533 576.375 860.204 577.488 861.577 579.111 862.95 580.734 863.637 582.669 863.637 584.916 863.637 587.317 862.854 589.401 861.289 591.168 859.724 592.935 857.299 594.183 854.015 594.913L862.081 606.119C863.925 608.693 865.509 610.402 866.835 611.247 868.16 612.092 869.888 612.63 872.02 612.861L872.02 613.927 861.591 613.927 848.368 595.662C847.389 595.7 846.592 595.719 845.977 595.719 845.728 595.719 845.459 595.715 845.171 595.705 844.882 595.695 844.585 595.681 844.277 595.662L844.277 607.012C844.277 609.471 844.546 610.998 845.084 611.593 845.814 612.438 846.909 612.861 848.368 612.861L849.895 612.861 849.895 613.927 833.157 613.927 833.157 612.861 834.627 612.861C836.278 612.861 837.459 612.323 838.17 611.247 838.573 610.652 838.775 609.24 838.775 607.012L838.775 581.776C838.775 579.318 838.506 577.791 837.968 577.196 837.219 576.351 836.105 575.928 834.627 575.928L833.157 575.928ZM757.396 574.862 789.287 574.862 789.719 584.023 788.625 584.023C788.413 582.41 788.125 581.258 787.76 580.566 787.165 579.452 786.373 578.631 785.384 578.103 784.395 577.575 783.093 577.311 781.48 577.311L775.978 577.311 775.978 607.156C775.978 609.557 776.237 611.055 776.755 611.651 777.485 612.457 778.609 612.861 780.126 612.861L781.48 612.861 781.48 613.927 764.915 613.927 764.915 612.861 766.298 612.861C767.95 612.861 769.121 612.361 769.813 611.363 770.235 610.748 770.446 609.346 770.446 607.156L770.446 577.311 765.751 577.311C763.926 577.311 762.63 577.445 761.861 577.714 760.863 578.079 760.008 578.78 759.297 579.817 758.587 580.854 758.164 582.256 758.03 584.023L756.935 584.023ZM673.359 574.862 703.464 574.862 703.896 583.418 702.773 583.418C702.369 581.363 701.923 579.952 701.433 579.183 700.943 578.415 700.218 577.829 699.258 577.426 698.49 577.138 697.136 576.994 695.196 576.994L684.479 576.994 684.479 592.435 693.064 592.435C695.292 592.435 696.78 592.099 697.529 591.427 698.528 590.544 699.085 588.988 699.2 586.76L700.266 586.76 700.266 600.358 699.2 600.358C698.931 598.456 698.663 597.237 698.394 596.699 698.048 596.027 697.481 595.499 696.694 595.115 695.907 594.73 694.697 594.538 693.064 594.538L684.479 594.538 684.479 607.416C684.479 609.144 684.556 610.196 684.71 610.57 684.863 610.945 685.132 611.243 685.516 611.463 685.9 611.684 686.63 611.795 687.706 611.795L694.332 611.795C696.54 611.795 698.144 611.641 699.143 611.334 700.141 611.026 701.102 610.422 702.024 609.519 703.214 608.328 704.434 606.532 705.682 604.132L706.835 604.132 703.464 613.927 673.359 613.927 673.359 612.861 674.742 612.861C675.664 612.861 676.538 612.64 677.363 612.198 677.978 611.891 678.396 611.43 678.617 610.815 678.837 610.201 678.948 608.943 678.948 607.041L678.948 581.661C678.948 579.183 678.698 577.656 678.199 577.08 677.507 576.312 676.355 575.928 674.742 575.928L673.359 575.928ZM637.33 574.862 655.019 574.862 655.019 575.928C652.944 575.909 651.49 576.101 650.654 576.504 649.819 576.907 649.247 577.416 648.94 578.031 648.633 578.646 648.479 580.115 648.479 582.439L648.479 606.984C648.479 608.578 648.633 609.672 648.94 610.268 649.171 610.671 649.526 610.969 650.006 611.161 650.486 611.353 651.984 611.449 654.5 611.449L657.352 611.449C660.348 611.449 662.451 611.228 663.661 610.786 664.871 610.345 665.976 609.562 666.974 608.438 667.973 607.315 668.972 605.543 669.97 603.123L670.921 603.325 667.579 613.927 637.33 613.927 637.33 612.861 638.799 612.861C640.451 612.861 641.632 612.323 642.343 611.247 642.746 610.633 642.948 609.212 642.948 606.984L642.948 581.776C642.948 579.337 642.679 577.81 642.141 577.196 641.392 576.351 640.278 575.928 638.799 575.928L637.33 575.928ZM551.371 574.862 561.973 574.862 585.855 604.16 585.855 581.632C585.855 579.231 585.586 577.733 585.048 577.138 584.338 576.331 583.214 575.928 581.678 575.928L580.324 575.928 580.324 574.862 593.922 574.862 593.922 575.928 592.539 575.928C590.887 575.928 589.715 576.427 589.024 577.426 588.602 578.041 588.39 579.443 588.39 581.632L588.39 614.56 587.353 614.56 561.598 583.101 561.598 607.156C561.598 609.557 561.858 611.055 562.376 611.651 563.106 612.457 564.229 612.861 565.747 612.861L567.13 612.861 567.13 613.927 553.532 613.927 553.532 612.861 554.886 612.861C556.557 612.861 557.738 612.361 558.429 611.363 558.852 610.748 559.063 609.346 559.063 607.156L559.063 579.99C557.93 578.665 557.071 577.791 556.485 577.368 555.899 576.946 555.04 576.552 553.906 576.187 553.349 576.014 552.504 575.928 551.371 575.928ZM471.129 574.862 488.01 574.862C491.16 574.862 493.686 575.093 495.587 575.553 498.468 576.245 500.667 577.469 502.184 579.227 503.701 580.984 504.46 583.005 504.46 585.291 504.46 587.25 503.865 589.002 502.674 590.548 501.483 592.094 499.726 593.242 497.402 593.991 500.11 594.567 502.136 595.489 503.481 596.757 505.344 598.524 506.275 600.684 506.275 603.239 506.275 605.178 505.66 607.036 504.431 608.813 503.202 610.59 501.517 611.886 499.375 612.702 497.234 613.518 493.964 613.927 489.566 613.927L471.129 613.927 471.129 612.861 472.598 612.861C474.23 612.861 475.402 612.342 476.112 611.305 476.554 610.633 476.775 609.202 476.775 607.012L476.775 581.776C476.775 579.356 476.497 577.829 475.94 577.196 475.191 576.351 474.077 575.928 472.598 575.928L471.129 575.928ZM811.727 573.969C816.797 573.969 821.19 575.894 824.907 579.745 828.623 583.596 830.481 588.402 830.481 594.164 830.481 600.098 828.609 605.025 824.863 608.943 821.118 612.861 816.586 614.82 811.266 614.82 805.888 614.82 801.37 612.909 797.711 609.087 794.053 605.265 792.223 600.319 792.223 594.25 792.223 588.047 794.336 582.986 798.561 579.068 802.229 575.669 806.618 573.969 811.727 573.969ZM738.274 573.969C740.348 573.969 742.547 574.478 744.871 575.496 745.946 575.976 746.705 576.216 747.147 576.216 747.646 576.216 748.054 576.067 748.371 575.77 748.688 575.472 748.942 574.872 749.134 573.969L750.2 573.969 750.2 587.48 749.134 587.48C748.789 584.887 748.169 582.823 747.276 581.286 746.383 579.75 745.111 578.53 743.459 577.628 741.807 576.725 740.098 576.274 738.331 576.274 736.334 576.274 734.682 576.883 733.376 578.103 732.07 579.323 731.417 580.71 731.417 582.266 731.417 583.457 731.83 584.542 732.656 585.521 733.847 586.962 736.68 588.882 741.154 591.283 744.804 593.242 747.296 594.745 748.63 595.792 749.965 596.838 750.993 598.072 751.713 599.493 752.433 600.915 752.793 602.403 752.793 603.959 752.793 606.916 751.646 609.466 749.35 611.607 747.055 613.749 744.103 614.82 740.492 614.82 739.359 614.82 738.293 614.733 737.294 614.56 736.699 614.464 735.465 614.114 733.592 613.509 731.72 612.904 730.534 612.601 730.034 612.601 729.554 612.601 729.175 612.745 728.896 613.033 728.618 613.322 728.411 613.917 728.277 614.82L727.211 614.82 727.211 601.424 728.277 601.424C728.776 604.228 729.449 606.326 730.294 607.718 731.139 609.111 732.43 610.268 734.168 611.19 735.906 612.112 737.813 612.573 739.887 612.573 742.288 612.573 744.184 611.939 745.577 610.671 746.969 609.404 747.665 607.906 747.665 606.177 747.665 605.217 747.401 604.247 746.873 603.267 746.345 602.288 745.524 601.376 744.41 600.531 743.661 599.954 741.615 598.73 738.274 596.857 734.932 594.985 732.555 593.492 731.143 592.378 729.732 591.264 728.661 590.035 727.931 588.69 727.202 587.346 726.837 585.867 726.837 584.254 726.837 581.45 727.912 579.035 730.063 577.008 732.214 574.982 734.951 573.969 738.274 573.969ZM616.908 573.969C618.329 573.969 619.621 574.084 620.783 574.315 621.945 574.545 623.591 575.054 625.723 575.842 626.799 576.245 627.519 576.447 627.884 576.447 628.249 576.447 628.561 576.279 628.82 575.942 629.079 575.606 629.238 574.948 629.296 573.969L630.361 573.969 631.37 586.299 630.361 586.299C629.344 583.226 628.028 580.912 626.415 579.356 624.091 577.109 621.104 575.986 617.455 575.986 612.481 575.986 608.697 577.954 606.105 581.891 603.934 585.214 602.849 589.17 602.849 593.76 602.849 597.486 603.569 600.886 605.01 603.959 606.45 607.032 608.337 609.284 610.671 610.714 613.004 612.145 615.4 612.861 617.859 612.861 619.299 612.861 620.691 612.678 622.036 612.313 623.38 611.948 624.677 611.411 625.925 610.7L625.925 599.407C625.925 597.448 625.776 596.166 625.478 595.561 625.181 594.956 624.72 594.495 624.096 594.178 623.471 593.861 622.372 593.703 620.797 593.703L620.797 592.608 635.922 592.608 635.922 593.703 635.201 593.703C633.703 593.703 632.676 594.202 632.119 595.201 631.735 595.912 631.543 597.314 631.543 599.407L631.543 611.363C629.334 612.553 627.154 613.427 625.003 613.984 622.852 614.541 620.461 614.82 617.83 614.82 610.282 614.82 604.549 612.4 600.631 607.56 597.693 603.93 596.223 599.743 596.223 594.999 596.223 591.561 597.049 588.268 598.701 585.118 600.66 581.373 603.349 578.492 606.767 576.475 609.629 574.804 613.009 573.969 616.908 573.969ZM529.776 573.969 530.784 573.969 544.382 606.465C545.477 609.077 546.471 610.772 547.364 611.55 548.257 612.328 549.5 612.765 551.094 612.861L551.094 613.927 535.682 613.927 535.682 612.861C537.237 612.784 538.289 612.525 538.836 612.083 539.384 611.641 539.657 611.103 539.657 610.469 539.657 609.624 539.273 608.29 538.505 606.465L536.143 600.847 521.018 600.847 518.368 607.012C517.715 608.53 517.388 609.663 517.388 610.412 517.388 611.007 517.672 611.531 518.238 611.982 518.805 612.433 520.029 612.726 521.911 612.861L521.911 613.927 509.61 613.927 509.61 612.861C511.242 612.573 512.299 612.198 512.779 611.737 513.758 610.815 514.844 608.943 516.034 606.119Z" fill="url(#fill6)" fill-rule="evenodd"/><text fill="#000000" fill-opacity="0" font-family="Arial,Arial_MSFontService,sans-serif" font-size="40.8506" x="471.129" y="609.713">BANGLE STORE</text></g></svg>